<?xml version="1.0" encoding="utf-8"?>
<!-- Generator: Adobe Illustrator 22.0.0, SVG Export Plug-In . SVG Version: 6.00 Build 0)  -->
<svg version="1.1" id="Capa_1" xmlns="http://www.w3.org/2000/svg" xmlns:xlink="http://www.w3.org/1999/xlink" x="0px" y="0px"
	 viewBox="0 0 1366 768" style="enable-background:new 0 0 1366 768;" xml:space="preserve">
<style type="text/css">
	.st0{fill:url(#SVGID_1_);}
	.st1{fill:url(#SVGID_2_);}
</style>
<g>
	<linearGradient id="SVGID_1_" gradientUnits="userSpaceOnUse" x1="507.5" y1="349" x2="735.5" y2="349">
		<stop  offset="0" style="stop-color:#CCE0F4"/>
		<stop  offset="6.405089e-02" style="stop-color:#C3DCF2"/>
		<stop  offset="0.1706" style="stop-color:#A9D2EE"/>
		<stop  offset="0.3066" style="stop-color:#80C2E7"/>
		<stop  offset="0.4649" style="stop-color:#47ACDE"/>
		<stop  offset="0.5674" style="stop-color:#1E9CD7"/>
		<stop  offset="0.8652" style="stop-color:#0075BE"/>
		<stop  offset="0.9944" style="stop-color:#005B97"/>
	</linearGradient>
	<ellipse class="st0" cx="621.5" cy="349" rx="114" ry="106.5"/>
	<path d="M621.5,243c30.3,0,58.8,11,80.3,31.1c21.4,20,33.2,46.6,33.2,74.9s-11.8,54.9-33.2,74.9c-21.4,20-50,31.1-80.3,31.1
		s-58.8-11-80.3-31.1c-21.4-20-33.2-46.6-33.2-74.9s11.8-54.9,33.2-74.9C562.7,254,591.2,243,621.5,243 M621.5,242
		C558.3,242,507,289.9,507,349s51.3,107,114.5,107S736,408.1,736,349S684.7,242,621.5,242L621.5,242z"/>
</g>
<g>
	<polygon points="567.3,315.4 555.1,322.4 560.8,309.6 550.3,300.2 564.3,301.6 569.9,288.8 572.9,302.5 586.9,303.9 574.8,311 
		577.8,324.7 	"/>
	<path d="M569.8,290.4l2.6,11.9l0.2,0.7l0.7,0.1l12.1,1.2l-10.5,6.1l-0.6,0.4l0.2,0.7l2.6,11.9l-9.1-8.1l-0.5-0.5l-0.6,0.4
		l-10.5,6.1l4.9-11.1l0.3-0.7l-0.5-0.5l-9.1-8.1l12.1,1.2l0.7,0.1l0.3-0.7L569.8,290.4 M570.1,287.1l-6.1,13.9l-15.2-1.5l11.4,10.1
		l-6.1,13.9l13.1-7.7l11.4,10.1l-3.2-14.9l13.1-7.7l-15.2-1.5L570.1,287.1L570.1,287.1z"/>
</g>
<g>
	<polygon points="668,310.6 655.7,305.4 668.7,302.4 669.9,289.1 676.7,300.5 689.7,297.5 681,307.6 687.9,319 675.6,313.8 
		666.8,323.9 	"/>
	<path d="M670.2,290.7l5.9,9.8l0.4,0.6l0.7-0.2l11.1-2.6l-7.5,8.6l-0.5,0.5l0.4,0.6l5.9,9.8l-10.5-4.5l-0.7-0.3l-0.5,0.5l-7.5,8.6
		l1-11.4l0.1-0.7l-0.7-0.3l-10.5-4.5l11.1-2.6l0.7-0.2l0.1-0.7L670.2,290.7 M669.5,287.5l-1.3,14.5l-14.1,3.3l13.4,5.7l-1.3,14.5
		l9.5-11l13.4,5.7l-7.5-12.4l9.5-11L677,300L669.5,287.5L669.5,287.5z"/>
</g>
<g>
	<polygon points="564.2,390.8 549.1,393.9 559.5,382.6 551.9,369.2 565.9,375.6 576.3,364.3 574.5,379.5 588.5,385.9 573.4,389 
		571.7,404.2 	"/>
	<path d="M575.6,365.8l-1.5,13.3l-0.1,0.7l0.7,0.3l12.2,5.6l-13.2,2.7l-0.7,0.1l-0.1,0.7l-1.5,13.3l-6.6-11.7l-0.4-0.6l-0.7,0.1
		l-13.2,2.7l9.1-9.9l0.5-0.5l-0.4-0.6l-6.6-11.7l12.2,5.6l0.7,0.3l0.5-0.5L575.6,365.8 M576.9,362.8L565.8,375l-15-6.9l8.1,14.4
		l-11.2,12.2l16.2-3.3l8.1,14.4l1.9-16.4l16.2-3.3l-15-6.9L576.9,362.8L576.9,362.8z"/>
</g>
<g>
	<linearGradient id="SVGID_2_" gradientUnits="userSpaceOnUse" x1="657.668" y1="384.5078" x2="688.1787" y2="384.5078">
		<stop  offset="0" style="stop-color:#FFFFFF"/>
		<stop  offset="1" style="stop-color:#000000"/>
	</linearGradient>
	<polygon class="st1" points="669.3,388.2 657.7,385.6 668.6,380.8 667.4,369 675.3,377.9 686.2,373.1 680.2,383.4 688.2,392.3 
		676.5,389.7 670.5,400 	"/>
	<path d="M668,370.5l6.7,7.5l0.5,0.5l0.7-0.3l9.2-4l-5.1,8.7l-0.4,0.6l0.5,0.5l6.7,7.5l-9.8-2.1l-0.7-0.2l-0.4,0.6l-5.1,8.7l-1-10
		l-0.1-0.7l-0.7-0.2l-9.8-2.1l9.2-4l0.7-0.3l-0.1-0.7L668,370.5 M666.7,367.5l1.3,13l-12,5.3l12.8,2.8l1.3,13l6.6-11.3l12.8,2.8
		l-8.7-9.8l6.6-11.3l-12,5.3L666.7,367.5L666.7,367.5z"/>
</g>
</svg>
